HIERARCHY
ROOT HipCenter
{
    OFFSET 0.0 0.0 -0.0
    CHANNELS 6 Xposition Yposition Zposition Zrotation Xrotation Yrotation
    JOINT Spine
    {
        OFFSET 0.0 9.69979190826416 0.0
        CHANNELS 3 Zrotation Xrotation Yrotation
        JOINT ShoulderCenter
        {
            OFFSET 0.0 29.569120407104492 0.0
            CHANNELS 3 Zrotation Xrotation Yrotation
            JOINT LeftShoulder
            {
                OFFSET 20.128520965576172 0.0 0.0
                CHANNELS 3 Zrotation Xrotation Yrotation
                JOINT LeftElbow
                {
                    OFFSET 26.887630462646484 0.0 0.0
                    CHANNELS 3 Zrotation Xrotation Yrotation
                    JOINT LeftWrist
                    {
                        OFFSET 23.090866088867188 0.0 0.0
                        CHANNELS 3 Zrotation Xrotation Yrotation
                        JOINT LeftHand
                        {
                            OFFSET 3.2948222160339355 0.0 0.0
                            CHANNELS 3 Zrotation Xrotation Yrotation
                            End Site
                            {
                                OFFSET 1.3179287910461426 0.0 0.0
                            }
                        }
                    }
                }
            }
            JOINT RightShoulder
            {
                OFFSET -20.128520965576172 0.0 0.0
                CHANNELS 3 Zrotation Xrotation Yrotation
                JOINT RightElbow
                {
                    OFFSET -26.887630462646484 0.0 0.0
                    CHANNELS 3 Zrotation Xrotation Yrotation
                    JOINT RightWrist
                    {
                        OFFSET -23.090866088867188 0.0 0.0
                        CHANNELS 3 Zrotation Xrotation Yrotation
                        JOINT RightHand
                        {
                            OFFSET -3.2948222160339355 0.0 0.0
                            CHANNELS 3 Zrotation Xrotation Yrotation
                            End Site
                            {
                                OFFSET -1.3179287910461426 0.0 0.0
                            }
                        }
                    }
                }
            }
            End Site
            {
                OFFSET 0.0 11.827648162841797 0.0
            }
        }
    }
    JOINT LeftHip
    {
        OFFSET 15.391853332519531 0.0 0.0
        CHANNELS 3 Zrotation Xrotation Yrotation
        JOINT LeftKnee
        {
            OFFSET 0.0 -41.92286682128906 0.0
            CHANNELS 3 Zrotation Xrotation Yrotation
            JOINT LeftAnkle
            {
                OFFSET 0.0 -41.430824279785156 0.0
                CHANNELS 3 Zrotation Xrotation Yrotation
                JOINT LeftFoot
                {
                    OFFSET 0.0 -12.031784057617188 0.0
                    CHANNELS 3 Zrotation Xrotation Yrotation
                    End Site
                    {
                        OFFSET 0.0 0.0 4.812714099884033
                    }
                }
            }
        }
    }
    JOINT RightHip
    {
        OFFSET -15.391853332519531 0.0 0.0
        CHANNELS 3 Zrotation Xrotation Yrotation
        JOINT RightKnee
        {
            OFFSET 0.0 -41.92286682128906 0.0
            CHANNELS 3 Zrotation Xrotation Yrotation
            JOINT RightAnkle
            {
                OFFSET 0.0 -41.430824279785156 0.0
                CHANNELS 3 Zrotation Xrotation Yrotation
                JOINT RightFoot
                {
                    OFFSET 0.0 -12.031784057617188 0.0
                    CHANNELS 3 Zrotation Xrotation Yrotation
                    End Site
                    {
                        OFFSET 0.0 0.0 4.812714099884033
                    }
                }
            }
        }
    }
}
MOTION
Frames: 8
Frame Time: 0.03333333333333333
-66.0 -51.79999923706055 156.89999389648438 93.27050025860584 -43.698887710861705 -74.05605951286189 3.249458070417954 -30.611692721070227 3.057324231610318 -1.7677132215926554e-06 -1.1405902416098423e-07 0.6336704989090329 120.95468279328715 -37.369465142699774 -121.66652455169826 5.004024781504688e-07 -1.886809771991465e-07 30.142389038702053 179.99999969688105 -33.22814789043471 -124.9710272922683 0.0 0.0 -3.1805546814635168e-15 -125.97310731076713 23.871406816245862 138.2388402501731 -3.2206905387576033e-06 -3.950394233378273e-06 -19.340558108404082 1.5240018786658288e-05 -78.7272965748876 -65.92040912409867 3.1805546814635168e-15 0.0 0.0 161.46845572045706 -69.16042420818094 -151.5534412447507 145.29522375305186 48.001023329515455 -166.2475466018307 116.46185287145188 -73.58904280212337 129.7098330629264 -1.9878466759146977e-16 -9.914047349136098e-34 5.715059193254755e-16 -171.26527361767268 -46.834034977240314 147.33559966171606 -158.06734973826647 35.624160828599365 168.71235519750476 -67.64727451486114 -67.05044129848565 -82.32410616636334 0.0 0.0 -3.975693351829396e-16
-65.9000015258789 -52.0 157.79998779296875 91.6135458305804 -43.32829893600897 -75.17166358624209 3.3658896353675267 -29.709077506863025 3.0519123932256895 -4.1313916972399427e-07 2.064623659808366e-06 0.38846639723565296 117.72740296916014 -36.789041257750924 -121.98623679707626 6.796442207494612e-07 -4.94397311024588e-07 29.035719164812196 179.99999983852095 -38.42263697689483 -126.33971295338466 6.7586786981099735e-15 1.8759101766713175e-31 3.1805546814635168e-15 -126.93881223692593 24.378292078650663 138.504032922193 -1.5599073633826207e-06 -6.831873448049009e-06 -19.360466608187846 1.861135022621755e-06 -78.37805420350223 -62.995567217099286 1.2722218725854064e-14 6.361109362927032e-15 -7.062250076880254e-31 160.68388392707797 -68.55606318367305 -152.0478710367959 147.33868485815063 46.5756933699792 -167.79157326163667 111.62118394708466 -73.90143881575162 123.9934517898386 -3.975693351829396e-16 3.975693351829396e-16 -1.2424041724466862e-16 -169.09682947724184 -47.33331703034723 148.98318069433435 -158.55012920375057 35.14668261487112 169.87989697067306 -68.05097165472606 -67.42134495063337 -81.41532349882563 0.0 0.0 1.5902773407317584e-15
-65.69999694824219 -52.10000228881836 158.6999969482422 90.79571421063933 -42.507664686915966 -74.95419470720707 2.988196451584669 -29.644673121744553 2.837048987195768 -3.7132929782084933e-07 -2.9334651770161107e-06 -0.4277259499561104 116.36200114501489 -36.82772001064893 -121.68505751368119 7.782566482460498e-06 1.789235755124843e-06 28.93707902089045 -179.99999665659783 -36.34661077486547 -124.69696467770706 -1.9878466759146984e-15 -5.517382872562698e-32 3.1805546814635176e-15 -126.89843817467029 25.52161819612346 138.66087789274602 3.87650478861695e-06 2.7346979148889087e-06 -19.12518401342604 6.7213252924392105e-06 -75.99665810382999 -60.19255552288265 -6.3611093629270335e-15 6.3611093629270335e-15 3.531125038440127e-31 163.91170990836116 -68.16889232816195 -149.33750189542735 148.3263037712039 46.16298533304093 -167.71010434179286 110.93783004456496 -75.00814444312773 123.39472573180079 1.0733033869282124e-32 -3.975693351829396e-16 3.0935863893922486e-15 -166.31478976911282 -46.9961048100229 151.09405853819115 -159.0933911023893 34.948928491865985 171.17381359954967 -69.86930342803971 -66.20104137967218 -81.54192019738333 -1.5902773407317582e-15 -5.517382872562698e-33 3.9756933518293955e-16
-65.5 -52.10000228881836 159.6999969482422 90.7848175761688 -41.67957007963464 -74.90671454129341 2.576398561654092 -30.04073804432984 2.8149445795188672 -1.8552219524838333e-06 -2.8004652507751153e-06 -0.8394533838427207 114.49866607426108 -36.71641773913568 -121.41976128896968 -4.3747862213633745e-06 1.7240584419914132e-06 28.201067692805992 179.99999815089183 -39.874688038195124 -123.24498205737993 -3.1805546814635168e-15 0.0 0.0 -130.72037021853316 23.496386648780845 141.06442272826777 1.0851436829001712e-06 1.0444128039701683e-06 -20.54311920950801 1.1654446470237457e-06 -77.57014491217205 -57.815988609228235 -6.3611093629270335e-15 -6.361109362927032e-15 -6.3611093629270335e-15 166.49864916908717 -67.07219862999088 -146.45312388387535 148.08515821518526 45.15120164797326 -167.2188813799158 115.3099266225537 -75.25667893187435 128.6528133014953 -1.987846675914698e-16 5.963540027744094e-16 -1.820122112634395e-15 -164.86793337079808 -45.9721953712113 151.7087462161374 -159.43580313519948 34.37700169555488 172.23062793055027 -70.26684762848487 -65.58129345886125 -80.61856034807691 0.0 0.0 1.1927080055488188e-15
-65.20000457763672 -52.20000076293945 160.6999969482422 90.00000022693936 -41.241432929052465 -75.12886106571032 1.5719141478047194 -29.83396943466327 2.4606136924277417 1.061777111229466e-06 -4.1028371895526426e-07 -1.6436862392158569 112.02272363690248 -35.964376786552194 -121.60730504240236 -2.1145380350467717e-06 3.7027474095485123e-06 27.728620612483386 179.99999716265407 -43.52779005959262 -125.93945251811384 -1.987846675914698e-15 -5.517382872562698e-32 3.1805546814635168e-15 -134.81265453072714 20.423702639429596 143.36559103095058 2.5607220238561935e-06 -5.904948652177754e-06 -22.141636819146715 -2.2640929435031414e-05 -82.09519312869375 -55.79281984225239 6.3611093629270335e-15 0.0 0.0 168.52236041168905 -66.39384318876965 -144.3272723284707 148.51735081007948 44.31254798228262 -167.0805196541586 117.7186143968262 -76.66952588389358 131.3924588976653 3.4787316828507215e-16 2.4261128642023134e-32 7.99176483926331e-15 -163.200354358552 -45.3271386182131 152.8582422308882 -160.07778220800307 33.83177467790795 173.3944857423132 -71.65971705346003 -64.3158184396787 -80.47180446668472 0.0 0.0 3.975693351829396e-15
-64.9000015258789 -52.39999771118164 161.60000610351562 88.45186392314841 -39.9472643408615 -76.10311506444012 1.677131145329518 -29.367972523315455 2.413864335974303 -1.2806456769870004e-06 1.7052393516909052e-06 -2.639735903828649 109.68797536487813 -35.268197340620844 -121.83880253961607 1.6665747687163779e-07 3.0188998593873596e-06 26.9260366046305 179.9999984240931 -51.26690184367461 -126.59521573933172 7.255640367088647e-15 -6.3611093629270335e-15 4.027689496970769e-31 -136.55906241530798 18.747003822943668 143.96381123377247 2.741724448630742e-06 -6.155061949485479e-06 -23.09461190204031 -1.192424517447444e-06 -84.11574345590172 -50.20180309449139 0.0 0.0 -3.1805546814635168e-15 170.33017365096478 -65.75416993426877 -142.72683035452891 148.98120237884834 42.87025355988838 -166.7390857820779 117.74542324779372 -77.25232619204162 132.3364837824495 2.0499668845370324e-16 7.951386703658792e-16 -2.1074280775126916e-15 -161.0933306952955 -45.2042942436496 154.07451993005895 -160.8099828639058 33.37022450593879 174.29173880979164 -70.54044218295823 -64.95106670464844 -78.03044814830564 -1.5902773407317584e-15 -1.6552148617688095e-32 1.1927080055488188e-15
-64.60000610351562 -52.499996185302734 162.5 87.70941966166913 -39.10024824301985 -76.75212807475451 1.2610309864321558 -29.50378599018858 2.3730293177454373 1.8958638540622433e-06 2.429134400750007e-06 -3.77009332571491 108.23542555368435 -34.745096644447244 -121.60973322536248 -4.052940665521339e-07 2.7574010858313472e-06 26.24116293068334 -179.9999972245402 -54.81130038667597 -127.1360039317423 9.93923337957349e-16 0.0 0.0 -137.18761436396534 17.216791873948523 143.81824969365059 2.1694199872570395e-06 -3.5822066841143193e-06 -24.6034405602814 -2.951435317491326e-05 -85.80959797836881 -49.2142167806117 6.361109362927033e-15 1.7655625192200634e-31 3.1805546814635164e-15 170.52113011176743 -64.61752487763552 -141.8428241174996 149.4595639231619 41.30201899089137 -166.96835775496515 113.66242795385782 -76.68344928525273 128.8171349935559 1.987846675914698e-16 5.28030782725727e-34 3.0438902224943813e-16 -160.31265455651888 -44.79019158757174 154.8598888637127 -161.6234768590861 33.303300199201686 175.13420579942255 -70.11472701306508 -64.55320866598518 -76.17491009097455 0.0 0.0 -7.951386703658791e-16
-64.20000457763672 -52.70000076293945 163.1999969482422 86.28471316149279 -37.40242924426876 -78.31699037959744 1.675810638953435 -29.47519702217498 2.1785153047039416 -1.1174908645170249e-06 4.84349008528106e-06 -4.607780295975695 106.58463874598061 -33.78990392595845 -122.32576535093675 2.394886942105455e-06 1.388167864233167e-07 25.99744733122819 179.9999992503008 -54.03925695548226 -126.89362200335657 3.975693351829396e-16 1.1034765745125397e-32 3.1805546814635168e-15 -136.36218141375053 14.786799443551114 143.65893646503878 2.371026636267072e-06 -8.142767963428173e-07 -27.82514395980631 179.9998635859216 -87.36343499388386 131.50837426039396 1.2722218725854065e-14 6.3611093629270335e-15 3.1805546814635156e-15 170.1361436113238 -63.923700040725954 -143.00980846569522 150.0642370674303 40.033417867473965 -167.85878138410436 110.98856223210822 -75.72687475959661 125.89291525152099 5.963540027744096e-16 -8.448348372637468e-16 -4.298718436665535e-15 -159.32025873814766 -44.967950114079294 155.03168983697384 -162.32444114105758 33.32520799918003 175.78395266311998 -68.08627438514189 -65.39986709995728 -73.00117528146299 0.0 0.0 0.0
